<?xml version="1.0" encoding="UTF-8" standalone="no"?>
<!DOCTYPE svg PUBLIC "-//W3C//DTD SVG 1.1//EN"
 "http://www.w3.org/Graphics/SVG/1.1/DTD/svg11.dtd">
<!-- Generated by graphviz version 2.40.1 (20161225.0304)
 -->
<!-- Title: %3 Pages: 1 -->
<svg width="1142pt" height="332pt"
 viewBox="0.00 0.00 1142.00 332.00" xmlns="http://www.w3.org/2000/svg" xmlns:xlink="http://www.w3.org/1999/xlink">
<g id="graph0" class="graph" transform="scale(1 1) rotate(0) translate(4 328)">
<title>%3</title>
<polygon fill="#ffffff" stroke="transparent" points="-4,4 -4,-328 1138,-328 1138,4 -4,4"/>
<!-- 0 -->
<g id="node1" class="node">
<title>0</title>
<ellipse fill="none" stroke="#000000" cx="603" cy="-306" rx="27" ry="18"/>
<text text-anchor="middle" x="603" y="-301.8" font-family="Times,serif" font-size="14.00" fill="#000000">a</text>
</g>
<!-- 1 -->
<g id="node2" class="node">
<title>1</title>
<ellipse fill="none" stroke="#000000" cx="423" cy="-234" rx="27" ry="18"/>
<text text-anchor="middle" x="423" y="-229.8" font-family="Times,serif" font-size="14.00" fill="#000000">d</text>
</g>
<!-- 0&#45;&#45;1 -->
<g id="edge1" class="edge">
<title>0&#45;&#45;1</title>
<path fill="none" stroke="#000000" d="M579.8366,-296.7347C545.3693,-282.9477 480.9402,-257.1761 446.3596,-243.3438"/>
</g>
<!-- 2 -->
<g id="node3" class="node">
<title>2</title>
<ellipse fill="none" stroke="#000000" cx="711" cy="-234" rx="27" ry="18"/>
<text text-anchor="middle" x="711" y="-229.8" font-family="Times,serif" font-size="14.00" fill="#000000">d</text>
</g>
<!-- 0&#45;&#45;2 -->
<g id="edge2" class="edge">
<title>0&#45;&#45;2</title>
<path fill="none" stroke="#000000" d="M622.3082,-293.1278C641.9663,-280.0225 672.2614,-259.8257 691.8589,-246.7607"/>
</g>
<!-- 3 -->
<g id="node4" class="node">
<title>3</title>
<ellipse fill="none" stroke="#000000" cx="207" cy="-162" rx="27" ry="18"/>
<text text-anchor="middle" x="207" y="-157.8" font-family="Times,serif" font-size="14.00" fill="#000000">c</text>
</g>
<!-- 1&#45;&#45;3 -->
<g id="edge3" class="edge">
<title>1&#45;&#45;3</title>
<path fill="none" stroke="#000000" d="M398.6419,-225.8806C357.0471,-212.0157 272.8029,-183.9343 231.2691,-170.0897"/>
</g>
<!-- 4 -->
<g id="node5" class="node">
<title>4</title>
<ellipse fill="none" stroke="#000000" cx="423" cy="-162" rx="27" ry="18"/>
<text text-anchor="middle" x="423" y="-157.8" font-family="Times,serif" font-size="14.00" fill="#000000">c</text>
</g>
<!-- 1&#45;&#45;4 -->
<g id="edge4" class="edge">
<title>1&#45;&#45;4</title>
<path fill="none" stroke="#000000" d="M423,-215.8314C423,-205 423,-191.2876 423,-180.4133"/>
</g>
<!-- 5 -->
<g id="node6" class="node">
<title>5</title>
<ellipse fill="none" stroke="#000000" cx="711" cy="-162" rx="27" ry="18"/>
<text text-anchor="middle" x="711" y="-157.8" font-family="Times,serif" font-size="14.00" fill="#000000">c</text>
</g>
<!-- 2&#45;&#45;5 -->
<g id="edge5" class="edge">
<title>2&#45;&#45;5</title>
<path fill="none" stroke="#000000" d="M711,-215.8314C711,-205 711,-191.2876 711,-180.4133"/>
</g>
<!-- 6 -->
<g id="node7" class="node">
<title>6</title>
<ellipse fill="none" stroke="#000000" cx="927" cy="-162" rx="27" ry="18"/>
<text text-anchor="middle" x="927" y="-157.8" font-family="Times,serif" font-size="14.00" fill="#000000">c</text>
</g>
<!-- 2&#45;&#45;6 -->
<g id="edge6" class="edge">
<title>2&#45;&#45;6</title>
<path fill="none" stroke="#000000" d="M735.3581,-225.8806C776.9529,-212.0157 861.1971,-183.9343 902.7309,-170.0897"/>
</g>
<!-- 7 -->
<g id="node8" class="node">
<title>7</title>
<ellipse fill="none" stroke="#000000" cx="99" cy="-90" rx="27" ry="18"/>
<text text-anchor="middle" x="99" y="-85.8" font-family="Times,serif" font-size="14.00" fill="#000000">b</text>
</g>
<!-- 3&#45;&#45;7 -->
<g id="edge7" class="edge">
<title>3&#45;&#45;7</title>
<path fill="none" stroke="#000000" d="M187.6918,-149.1278C168.0337,-136.0225 137.7386,-115.8257 118.1411,-102.7607"/>
</g>
<!-- 8 -->
<g id="node9" class="node">
<title>8</title>
<ellipse fill="none" stroke="#000000" cx="207" cy="-90" rx="27" ry="18"/>
<text text-anchor="middle" x="207" y="-85.8" font-family="Times,serif" font-size="14.00" fill="#000000">b</text>
</g>
<!-- 3&#45;&#45;8 -->
<g id="edge8" class="edge">
<title>3&#45;&#45;8</title>
<path fill="none" stroke="#000000" d="M207,-143.8314C207,-133 207,-119.2876 207,-108.4133"/>
</g>
<!-- 9 -->
<g id="node10" class="node">
<title>9</title>
<ellipse fill="none" stroke="#000000" cx="387" cy="-90" rx="27" ry="18"/>
<text text-anchor="middle" x="387" y="-85.8" font-family="Times,serif" font-size="14.00" fill="#000000">b</text>
</g>
<!-- 4&#45;&#45;9 -->
<g id="edge9" class="edge">
<title>4&#45;&#45;9</title>
<path fill="none" stroke="#000000" d="M414.2854,-144.5708C408.6253,-133.2506 401.2784,-118.5568 395.6343,-107.2687"/>
</g>
<!-- 10 -->
<g id="node11" class="node">
<title>10</title>
<ellipse fill="none" stroke="#000000" cx="459" cy="-90" rx="27" ry="18"/>
<text text-anchor="middle" x="459" y="-85.8" font-family="Times,serif" font-size="14.00" fill="#000000">b</text>
</g>
<!-- 4&#45;&#45;10 -->
<g id="edge10" class="edge">
<title>4&#45;&#45;10</title>
<path fill="none" stroke="#000000" d="M431.7146,-144.5708C437.3747,-133.2506 444.7216,-118.5568 450.3657,-107.2687"/>
</g>
<!-- 11 -->
<g id="node12" class="node">
<title>11</title>
<ellipse fill="none" stroke="#000000" cx="675" cy="-90" rx="27" ry="18"/>
<text text-anchor="middle" x="675" y="-85.8" font-family="Times,serif" font-size="14.00" fill="#000000">b</text>
</g>
<!-- 5&#45;&#45;11 -->
<g id="edge11" class="edge">
<title>5&#45;&#45;11</title>
<path fill="none" stroke="#000000" d="M702.2854,-144.5708C696.6253,-133.2506 689.2784,-118.5568 683.6343,-107.2687"/>
</g>
<!-- 12 -->
<g id="node13" class="node">
<title>12</title>
<ellipse fill="none" stroke="#000000" cx="747" cy="-90" rx="27" ry="18"/>
<text text-anchor="middle" x="747" y="-85.8" font-family="Times,serif" font-size="14.00" fill="#000000">b</text>
</g>
<!-- 5&#45;&#45;12 -->
<g id="edge12" class="edge">
<title>5&#45;&#45;12</title>
<path fill="none" stroke="#000000" d="M719.7146,-144.5708C725.3747,-133.2506 732.7216,-118.5568 738.3657,-107.2687"/>
</g>
<!-- 13 -->
<g id="node14" class="node">
<title>13</title>
<ellipse fill="none" stroke="#000000" cx="927" cy="-90" rx="27" ry="18"/>
<text text-anchor="middle" x="927" y="-85.8" font-family="Times,serif" font-size="14.00" fill="#000000">b</text>
</g>
<!-- 6&#45;&#45;13 -->
<g id="edge13" class="edge">
<title>6&#45;&#45;13</title>
<path fill="none" stroke="#000000" d="M927,-143.8314C927,-133 927,-119.2876 927,-108.4133"/>
</g>
<!-- 14 -->
<g id="node15" class="node">
<title>14</title>
<ellipse fill="none" stroke="#000000" cx="1035" cy="-90" rx="27" ry="18"/>
<text text-anchor="middle" x="1035" y="-85.8" font-family="Times,serif" font-size="14.00" fill="#000000">b</text>
</g>
<!-- 6&#45;&#45;14 -->
<g id="edge14" class="edge">
<title>6&#45;&#45;14</title>
<path fill="none" stroke="#000000" d="M946.3082,-149.1278C965.9663,-136.0225 996.2614,-115.8257 1015.8589,-102.7607"/>
</g>
<!-- 15 -->
<g id="node16" class="node">
<title>15</title>
<ellipse fill="none" stroke="#000000" cx="27" cy="-18" rx="27" ry="18"/>
<text text-anchor="middle" x="27" y="-13.8" font-family="Times,serif" font-size="14.00" fill="#000000">0</text>
</g>
<!-- 7&#45;&#45;15 -->
<g id="edge15" class="edge">
<title>7&#45;&#45;15</title>
<path fill="none" stroke="#000000" d="M83.7307,-74.7307C71.512,-62.512 54.4602,-45.4602 42.2473,-33.2473"/>
</g>
<!-- 16 -->
<g id="node17" class="node">
<title>16</title>
<ellipse fill="none" stroke="#000000" cx="99" cy="-18" rx="27" ry="18"/>
<text text-anchor="middle" x="99" y="-13.8" font-family="Times,serif" font-size="14.00" fill="#000000">0</text>
</g>
<!-- 7&#45;&#45;16 -->
<g id="edge16" class="edge">
<title>7&#45;&#45;16</title>
<path fill="none" stroke="#000000" d="M99,-71.8314C99,-61 99,-47.2876 99,-36.4133"/>
</g>
<!-- 17 -->
<g id="node18" class="node">
<title>17</title>
<ellipse fill="none" stroke="#000000" cx="171" cy="-18" rx="27" ry="18"/>
<text text-anchor="middle" x="171" y="-13.8" font-family="Times,serif" font-size="14.00" fill="#000000">0</text>
</g>
<!-- 8&#45;&#45;17 -->
<g id="edge17" class="edge">
<title>8&#45;&#45;17</title>
<path fill="none" stroke="#000000" d="M198.2854,-72.5708C192.6253,-61.2506 185.2784,-46.5568 179.6343,-35.2687"/>
</g>
<!-- 18 -->
<g id="node19" class="node">
<title>18</title>
<ellipse fill="none" stroke="#000000" cx="243" cy="-18" rx="27" ry="18"/>
<text text-anchor="middle" x="243" y="-13.8" font-family="Times,serif" font-size="14.00" fill="#000000">0</text>
</g>
<!-- 8&#45;&#45;18 -->
<g id="edge18" class="edge">
<title>8&#45;&#45;18</title>
<path fill="none" stroke="#000000" d="M215.7146,-72.5708C221.3747,-61.2506 228.7216,-46.5568 234.3657,-35.2687"/>
</g>
<!-- 19 -->
<g id="node20" class="node">
<title>19</title>
<ellipse fill="none" stroke="#000000" cx="315" cy="-18" rx="27" ry="18"/>
<text text-anchor="middle" x="315" y="-13.8" font-family="Times,serif" font-size="14.00" fill="#000000">1</text>
</g>
<!-- 9&#45;&#45;19 -->
<g id="edge19" class="edge">
<title>9&#45;&#45;19</title>
<path fill="none" stroke="#000000" d="M371.7307,-74.7307C359.512,-62.512 342.4602,-45.4602 330.2473,-33.2473"/>
</g>
<!-- 20 -->
<g id="node21" class="node">
<title>20</title>
<ellipse fill="none" stroke="#000000" cx="387" cy="-18" rx="27" ry="18"/>
<text text-anchor="middle" x="387" y="-13.8" font-family="Times,serif" font-size="14.00" fill="#000000">0</text>
</g>
<!-- 9&#45;&#45;20 -->
<g id="edge20" class="edge">
<title>9&#45;&#45;20</title>
<path fill="none" stroke="#000000" d="M387,-71.8314C387,-61 387,-47.2876 387,-36.4133"/>
</g>
<!-- 21 -->
<g id="node22" class="node">
<title>21</title>
<ellipse fill="none" stroke="#000000" cx="459" cy="-18" rx="27" ry="18"/>
<text text-anchor="middle" x="459" y="-13.8" font-family="Times,serif" font-size="14.00" fill="#000000">0</text>
</g>
<!-- 10&#45;&#45;21 -->
<g id="edge21" class="edge">
<title>10&#45;&#45;21</title>
<path fill="none" stroke="#000000" d="M459,-71.8314C459,-61 459,-47.2876 459,-36.4133"/>
</g>
<!-- 22 -->
<g id="node23" class="node">
<title>22</title>
<ellipse fill="none" stroke="#000000" cx="531" cy="-18" rx="27" ry="18"/>
<text text-anchor="middle" x="531" y="-13.8" font-family="Times,serif" font-size="14.00" fill="#000000">0</text>
</g>
<!-- 10&#45;&#45;22 -->
<g id="edge22" class="edge">
<title>10&#45;&#45;22</title>
<path fill="none" stroke="#000000" d="M474.2693,-74.7307C486.488,-62.512 503.5398,-45.4602 515.7527,-33.2473"/>
</g>
<!-- 23 -->
<g id="node24" class="node">
<title>23</title>
<ellipse fill="none" stroke="#000000" cx="603" cy="-18" rx="27" ry="18"/>
<text text-anchor="middle" x="603" y="-13.8" font-family="Times,serif" font-size="14.00" fill="#000000">0</text>
</g>
<!-- 11&#45;&#45;23 -->
<g id="edge23" class="edge">
<title>11&#45;&#45;23</title>
<path fill="none" stroke="#000000" d="M659.7307,-74.7307C647.512,-62.512 630.4602,-45.4602 618.2473,-33.2473"/>
</g>
<!-- 24 -->
<g id="node25" class="node">
<title>24</title>
<ellipse fill="none" stroke="#000000" cx="675" cy="-18" rx="27" ry="18"/>
<text text-anchor="middle" x="675" y="-13.8" font-family="Times,serif" font-size="14.00" fill="#000000">1</text>
</g>
<!-- 11&#45;&#45;24 -->
<g id="edge24" class="edge">
<title>11&#45;&#45;24</title>
<path fill="none" stroke="#000000" d="M675,-71.8314C675,-61 675,-47.2876 675,-36.4133"/>
</g>
<!-- 25 -->
<g id="node26" class="node">
<title>25</title>
<ellipse fill="none" stroke="#000000" cx="747" cy="-18" rx="27" ry="18"/>
<text text-anchor="middle" x="747" y="-13.8" font-family="Times,serif" font-size="14.00" fill="#000000">0</text>
</g>
<!-- 12&#45;&#45;25 -->
<g id="edge25" class="edge">
<title>12&#45;&#45;25</title>
<path fill="none" stroke="#000000" d="M747,-71.8314C747,-61 747,-47.2876 747,-36.4133"/>
</g>
<!-- 26 -->
<g id="node27" class="node">
<title>26</title>
<ellipse fill="none" stroke="#000000" cx="819" cy="-18" rx="27" ry="18"/>
<text text-anchor="middle" x="819" y="-13.8" font-family="Times,serif" font-size="14.00" fill="#000000">0</text>
</g>
<!-- 12&#45;&#45;26 -->
<g id="edge26" class="edge">
<title>12&#45;&#45;26</title>
<path fill="none" stroke="#000000" d="M762.2693,-74.7307C774.488,-62.512 791.5398,-45.4602 803.7527,-33.2473"/>
</g>
<!-- 27 -->
<g id="node28" class="node">
<title>27</title>
<ellipse fill="none" stroke="#000000" cx="891" cy="-18" rx="27" ry="18"/>
<text text-anchor="middle" x="891" y="-13.8" font-family="Times,serif" font-size="14.00" fill="#000000">1</text>
</g>
<!-- 13&#45;&#45;27 -->
<g id="edge27" class="edge">
<title>13&#45;&#45;27</title>
<path fill="none" stroke="#000000" d="M918.2854,-72.5708C912.6253,-61.2506 905.2784,-46.5568 899.6343,-35.2687"/>
</g>
<!-- 28 -->
<g id="node29" class="node">
<title>28</title>
<ellipse fill="none" stroke="#000000" cx="963" cy="-18" rx="27" ry="18"/>
<text text-anchor="middle" x="963" y="-13.8" font-family="Times,serif" font-size="14.00" fill="#000000">0</text>
</g>
<!-- 13&#45;&#45;28 -->
<g id="edge28" class="edge">
<title>13&#45;&#45;28</title>
<path fill="none" stroke="#000000" d="M935.7146,-72.5708C941.3747,-61.2506 948.7216,-46.5568 954.3657,-35.2687"/>
</g>
<!-- 29 -->
<g id="node30" class="node">
<title>29</title>
<ellipse fill="none" stroke="#000000" cx="1035" cy="-18" rx="27" ry="18"/>
<text text-anchor="middle" x="1035" y="-13.8" font-family="Times,serif" font-size="14.00" fill="#000000">0</text>
</g>
<!-- 14&#45;&#45;29 -->
<g id="edge29" class="edge">
<title>14&#45;&#45;29</title>
<path fill="none" stroke="#000000" d="M1035,-71.8314C1035,-61 1035,-47.2876 1035,-36.4133"/>
</g>
<!-- 30 -->
<g id="node31" class="node">
<title>30</title>
<ellipse fill="none" stroke="#000000" cx="1107" cy="-18" rx="27" ry="18"/>
<text text-anchor="middle" x="1107" y="-13.8" font-family="Times,serif" font-size="14.00" fill="#000000">0</text>
</g>
<!-- 14&#45;&#45;30 -->
<g id="edge30" class="edge">
<title>14&#45;&#45;30</title>
<path fill="none" stroke="#000000" d="M1050.2693,-74.7307C1062.488,-62.512 1079.5398,-45.4602 1091.7527,-33.2473"/>
</g>
</g>
</svg>
