<?xml version="1.0" encoding="UTF-8" standalone="no"?>
<!DOCTYPE svg PUBLIC "-//W3C//DTD SVG 1.1//EN"
 "http://www.w3.org/Graphics/SVG/1.1/DTD/svg11.dtd">
<!-- Generated by graphviz version 2.40.1 (20161225.0304)
 -->
<!-- Title: %3 Pages: 1 -->
<svg width="235pt" height="388pt"
 viewBox="0.00 0.00 235.00 388.00" xmlns="http://www.w3.org/2000/svg" xmlns:xlink="http://www.w3.org/1999/xlink">
<g id="graph0" class="graph" transform="scale(1 1) rotate(0) translate(4 384)">
<title>%3</title>
<polygon fill="#ffffff" stroke="transparent" points="-4,4 -4,-384 231,-384 231,4 -4,4"/>
<!-- 0 -->
<g id="node1" class="node">
<title>0</title>
<ellipse fill="none" stroke="#000000" cx="125" cy="-18" rx="27" ry="18"/>
<text text-anchor="middle" x="125" y="-13.8" font-family="Times,serif" font-size="14.00" fill="#000000">0</text>
</g>
<!-- 1 -->
<g id="node2" class="node">
<title>1</title>
<ellipse fill="none" stroke="#000000" cx="46" cy="-18" rx="27" ry="18"/>
<text text-anchor="middle" x="46" y="-13.8" font-family="Times,serif" font-size="14.00" fill="#000000">1</text>
</g>
<!-- 2 -->
<g id="node3" class="node">
<title>2</title>
<ellipse fill="none" stroke="#000000" cx="27" cy="-104" rx="27" ry="18"/>
<text text-anchor="middle" x="27" y="-99.8" font-family="Times,serif" font-size="14.00" fill="#000000">a</text>
</g>
<!-- 2&#45;&#45;0 -->
<g id="edge1" class="edge">
<title>2&#45;&#45;0</title>
<path fill="none" stroke="#000000" d="M38.755,-87.5948C46.6237,-77.2655 57.5966,-64.0366 69,-54 79.6715,-44.6075 93.016,-35.93 104.0013,-29.4487"/>
<text text-anchor="middle" x="72.5" y="-56.8" font-family="Times,serif" font-size="14.00" fill="#000000">0</text>
</g>
<!-- 2&#45;&#45;1 -->
<g id="edge2" class="edge">
<title>2&#45;&#45;1</title>
<path fill="none" stroke="#000000" d="M29.847,-85.8662C31.448,-76.3377 33.6043,-64.4904 36,-54 37.3575,-48.0556 39.0664,-41.6228 40.6855,-35.8619"/>
<text text-anchor="middle" x="39.5" y="-56.8" font-family="Times,serif" font-size="14.00" fill="#000000">1</text>
</g>
<!-- 3 -->
<g id="node4" class="node">
<title>3</title>
<ellipse fill="none" stroke="#000000" cx="180" cy="-104" rx="27" ry="18"/>
<text text-anchor="middle" x="180" y="-99.8" font-family="Times,serif" font-size="14.00" fill="#000000">a</text>
</g>
<!-- 3&#45;&#45;0 -->
<g id="edge4" class="edge">
<title>3&#45;&#45;0</title>
<path fill="none" stroke="#000000" d="M177.5155,-85.8513C175.5349,-75.8761 172.0489,-63.6134 166,-54 160.3499,-45.0204 151.796,-37.0074 143.9606,-30.8338"/>
<text text-anchor="middle" x="175.5" y="-56.8" font-family="Times,serif" font-size="14.00" fill="#000000">1</text>
</g>
<!-- 3&#45;&#45;1 -->
<g id="edge3" class="edge">
<title>3&#45;&#45;1</title>
<path fill="none" stroke="#000000" d="M160.5152,-91.4949C135.1098,-75.1899 90.9253,-46.8327 65.5083,-30.5202"/>
<text text-anchor="middle" x="124.5" y="-56.8" font-family="Times,serif" font-size="14.00" fill="#000000">0</text>
</g>
<!-- 4 -->
<g id="node5" class="node">
<title>4</title>
<ellipse fill="none" stroke="#000000" cx="70" cy="-190" rx="27" ry="18"/>
<text text-anchor="middle" x="70" y="-185.8" font-family="Times,serif" font-size="14.00" fill="#000000">c</text>
</g>
<!-- 4&#45;&#45;0 -->
<g id="edge6" class="edge">
<title>4&#45;&#45;0</title>
<path fill="none" stroke="#000000" d="M74.8713,-172.2543C82.1436,-146.1545 96.5384,-95.9675 111,-54 113.0974,-47.9135 115.5904,-41.3294 117.8875,-35.4768"/>
<text text-anchor="middle" x="103.5" y="-99.8" font-family="Times,serif" font-size="14.00" fill="#000000">1</text>
</g>
<!-- 4&#45;&#45;2 -->
<g id="edge5" class="edge">
<title>4&#45;&#45;2</title>
<path fill="none" stroke="#000000" d="M61.2983,-172.5966C53.7889,-157.5778 43.0045,-136.009 35.542,-121.084"/>
<text text-anchor="middle" x="54.5" y="-142.8" font-family="Times,serif" font-size="14.00" fill="#000000">0</text>
</g>
<!-- 5 -->
<g id="node6" class="node">
<title>5</title>
<ellipse fill="none" stroke="#000000" cx="180" cy="-190" rx="27" ry="18"/>
<text text-anchor="middle" x="180" y="-185.8" font-family="Times,serif" font-size="14.00" fill="#000000">c</text>
</g>
<!-- 5&#45;&#45;0 -->
<g id="edge8" class="edge">
<title>5&#45;&#45;0</title>
<path fill="none" stroke="#000000" d="M192.9619,-173.8916C207.9139,-153.2333 228.884,-116.4402 216,-86 203.7003,-56.9402 171.2284,-37.6426 148.604,-27.256"/>
<text text-anchor="middle" x="223.5" y="-99.8" font-family="Times,serif" font-size="14.00" fill="#000000">1</text>
</g>
<!-- 5&#45;&#45;3 -->
<g id="edge7" class="edge">
<title>5&#45;&#45;3</title>
<path fill="none" stroke="#000000" d="M180,-171.7616C180,-157.1671 180,-136.7996 180,-122.2121"/>
<text text-anchor="middle" x="183.5" y="-142.8" font-family="Times,serif" font-size="14.00" fill="#000000">0</text>
</g>
<!-- 6 -->
<g id="node7" class="node">
<title>6</title>
<ellipse fill="none" stroke="#000000" cx="125" cy="-276" rx="27" ry="18"/>
<text text-anchor="middle" x="125" y="-271.8" font-family="Times,serif" font-size="14.00" fill="#000000">d</text>
</g>
<!-- 6&#45;&#45;0 -->
<g id="edge10" class="edge">
<title>6&#45;&#45;0</title>
<path fill="none" stroke="#000000" d="M125,-257.8579C125,-210.4869 125,-83.4705 125,-36.122"/>
<text text-anchor="middle" x="128.5" y="-142.8" font-family="Times,serif" font-size="14.00" fill="#000000">1</text>
</g>
<!-- 6&#45;&#45;5 -->
<g id="edge9" class="edge">
<title>6&#45;&#45;5</title>
<path fill="none" stroke="#000000" d="M135.6046,-259.4183C145.2814,-244.2873 159.5152,-222.0308 169.2403,-206.8242"/>
<text text-anchor="middle" x="158.5" y="-228.8" font-family="Times,serif" font-size="14.00" fill="#000000">0</text>
</g>
<!-- 7 -->
<g id="node8" class="node">
<title>7</title>
<ellipse fill="none" stroke="#000000" cx="88" cy="-362" rx="27" ry="18"/>
<text text-anchor="middle" x="88" y="-357.8" font-family="Times,serif" font-size="14.00" fill="#000000">b</text>
</g>
<!-- 7&#45;&#45;4 -->
<g id="edge12" class="edge">
<title>7&#45;&#45;4</title>
<path fill="none" stroke="#000000" d="M86.1077,-343.9181C82.6507,-310.8841 75.3522,-241.1435 71.8939,-208.0977"/>
<text text-anchor="middle" x="83.5" y="-271.8" font-family="Times,serif" font-size="14.00" fill="#000000">1</text>
</g>
<!-- 7&#45;&#45;6 -->
<g id="edge11" class="edge">
<title>7&#45;&#45;6</title>
<path fill="none" stroke="#000000" d="M95.4875,-344.5966C101.9068,-329.676 111.1075,-308.2906 117.5236,-293.3775"/>
<text text-anchor="middle" x="111.5" y="-314.8" font-family="Times,serif" font-size="14.00" fill="#000000">0</text>
</g>
</g>
</svg>
