<?xml version="1.0" encoding="UTF-8" standalone="no"?>
<!DOCTYPE svg PUBLIC "-//W3C//DTD SVG 1.1//EN"
 "http://www.w3.org/Graphics/SVG/1.1/DTD/svg11.dtd">
<!-- Generated by graphviz version 2.40.1 (20161225.0304)
 -->
<!-- Title: %3 Pages: 1 -->
<svg width="255pt" height="388pt"
 viewBox="0.00 0.00 255.00 388.00" xmlns="http://www.w3.org/2000/svg" xmlns:xlink="http://www.w3.org/1999/xlink">
<g id="graph0" class="graph" transform="scale(1 1) rotate(0) translate(4 384)">
<title>%3</title>
<polygon fill="#ffffff" stroke="transparent" points="-4,4 -4,-384 251,-384 251,4 -4,4"/>
<!-- 0 -->
<g id="node1" class="node">
<title>0</title>
<ellipse fill="none" stroke="#000000" cx="153" cy="-18" rx="27" ry="18"/>
<text text-anchor="middle" x="153" y="-13.8" font-family="Times,serif" font-size="14.00" fill="#000000">0</text>
</g>
<!-- 1 -->
<g id="node2" class="node">
<title>1</title>
<ellipse fill="none" stroke="#000000" cx="60" cy="-18" rx="27" ry="18"/>
<text text-anchor="middle" x="60" y="-13.8" font-family="Times,serif" font-size="14.00" fill="#000000">1</text>
</g>
<!-- 2 -->
<g id="node3" class="node">
<title>2</title>
<ellipse fill="none" stroke="#000000" cx="142" cy="-104" rx="27" ry="18"/>
<text text-anchor="middle" x="142" y="-99.8" font-family="Times,serif" font-size="14.00" fill="#000000">b</text>
</g>
<!-- 2&#45;&#45;0 -->
<g id="edge2" class="edge">
<title>2&#45;&#45;0</title>
<path fill="none" stroke="#000000" d="M144.3328,-85.7616C146.1996,-71.1671 148.8047,-50.7996 150.6705,-36.2121"/>
<text text-anchor="middle" x="151.5" y="-56.8" font-family="Times,serif" font-size="14.00" fill="#000000">1</text>
</g>
<!-- 2&#45;&#45;1 -->
<g id="edge1" class="edge">
<title>2&#45;&#45;1</title>
<path fill="none" stroke="#000000" d="M127.34,-88.6249C112.4145,-72.9713 89.4126,-48.8474 74.533,-33.242"/>
<text text-anchor="middle" x="109.5" y="-56.8" font-family="Times,serif" font-size="14.00" fill="#000000">0</text>
</g>
<!-- 3 -->
<g id="node4" class="node">
<title>3</title>
<ellipse fill="none" stroke="#000000" cx="27" cy="-104" rx="27" ry="18"/>
<text text-anchor="middle" x="27" y="-99.8" font-family="Times,serif" font-size="14.00" fill="#000000">b</text>
</g>
<!-- 3&#45;&#45;0 -->
<g id="edge3" class="edge">
<title>3&#45;&#45;0</title>
<path fill="none" stroke="#000000" d="M37.873,-87.398C45.54,-76.7261 56.6197,-63.1891 69,-54 86.8364,-40.7612 110.2863,-31.2357 127.8756,-25.3215"/>
<text text-anchor="middle" x="72.5" y="-56.8" font-family="Times,serif" font-size="14.00" fill="#000000">0</text>
</g>
<!-- 3&#45;&#45;1 -->
<g id="edge4" class="edge">
<title>3&#45;&#45;1</title>
<path fill="none" stroke="#000000" d="M28.4505,-85.9197C29.673,-76.1922 31.9124,-64.1443 36,-54 38.8074,-47.0328 43.0837,-40.0156 47.2528,-34.0505"/>
<text text-anchor="middle" x="39.5" y="-56.8" font-family="Times,serif" font-size="14.00" fill="#000000">1</text>
</g>
<!-- 4 -->
<g id="node5" class="node">
<title>4</title>
<ellipse fill="none" stroke="#000000" cx="178" cy="-190" rx="27" ry="18"/>
<text text-anchor="middle" x="178" y="-185.8" font-family="Times,serif" font-size="14.00" fill="#000000">c</text>
</g>
<!-- 4&#45;&#45;0 -->
<g id="edge6" class="edge">
<title>4&#45;&#45;0</title>
<path fill="none" stroke="#000000" d="M179.916,-171.7942C181.6741,-150.8986 183.2841,-115.6862 178,-86 174.8259,-68.1678 167.3125,-48.8812 161.3458,-35.4186"/>
<text text-anchor="middle" x="184.5" y="-99.8" font-family="Times,serif" font-size="14.00" fill="#000000">1</text>
</g>
<!-- 4&#45;&#45;2 -->
<g id="edge5" class="edge">
<title>4&#45;&#45;2</title>
<path fill="none" stroke="#000000" d="M170.7149,-172.5966C164.469,-157.676 155.517,-136.2906 149.2743,-121.3775"/>
<text text-anchor="middle" x="165.5" y="-142.8" font-family="Times,serif" font-size="14.00" fill="#000000">0</text>
</g>
<!-- 5 -->
<g id="node6" class="node">
<title>5</title>
<ellipse fill="none" stroke="#000000" cx="90" cy="-190" rx="27" ry="18"/>
<text text-anchor="middle" x="90" y="-185.8" font-family="Times,serif" font-size="14.00" fill="#000000">c</text>
</g>
<!-- 5&#45;&#45;0 -->
<g id="edge8" class="edge">
<title>5&#45;&#45;0</title>
<path fill="none" stroke="#000000" d="M87.2092,-171.7323C83.9536,-144.0812 81.5648,-90.9167 104,-54 110.469,-43.3554 121.3851,-34.8751 131.2742,-28.8255"/>
<text text-anchor="middle" x="94.5" y="-99.8" font-family="Times,serif" font-size="14.00" fill="#000000">1</text>
</g>
<!-- 5&#45;&#45;3 -->
<g id="edge7" class="edge">
<title>5&#45;&#45;3</title>
<path fill="none" stroke="#000000" d="M78.1502,-173.8241C66.9581,-158.5459 50.2555,-135.7456 39.0109,-120.3958"/>
<text text-anchor="middle" x="66.5" y="-142.8" font-family="Times,serif" font-size="14.00" fill="#000000">0</text>
</g>
<!-- 6 -->
<g id="node7" class="node">
<title>6</title>
<ellipse fill="none" stroke="#000000" cx="148" cy="-276" rx="27" ry="18"/>
<text text-anchor="middle" x="148" y="-271.8" font-family="Times,serif" font-size="14.00" fill="#000000">d</text>
</g>
<!-- 6&#45;&#45;4 -->
<g id="edge10" class="edge">
<title>6&#45;&#45;4</title>
<path fill="none" stroke="#000000" d="M154.216,-258.1807C159.3648,-243.421 166.6454,-222.5498 171.7919,-207.7964"/>
<text text-anchor="middle" x="167.5" y="-228.8" font-family="Times,serif" font-size="14.00" fill="#000000">1</text>
</g>
<!-- 6&#45;&#45;5 -->
<g id="edge9" class="edge">
<title>6&#45;&#45;5</title>
<path fill="none" stroke="#000000" d="M136.817,-259.4183C126.5465,-244.1897 111.4083,-221.7433 101.1487,-206.5308"/>
<text text-anchor="middle" x="126.5" y="-228.8" font-family="Times,serif" font-size="14.00" fill="#000000">0</text>
</g>
<!-- 7 -->
<g id="node8" class="node">
<title>7</title>
<ellipse fill="none" stroke="#000000" cx="220" cy="-276" rx="27" ry="18"/>
<text text-anchor="middle" x="220" y="-271.8" font-family="Times,serif" font-size="14.00" fill="#000000">d</text>
</g>
<!-- 7&#45;&#45;0 -->
<g id="edge11" class="edge">
<title>7&#45;&#45;0</title>
<path fill="none" stroke="#000000" d="M220.9486,-257.8084C222.2269,-218.2721 221.0267,-122.561 185,-54 180.9546,-46.3014 174.9149,-38.9166 169.1688,-32.861"/>
<text text-anchor="middle" x="217.5" y="-142.8" font-family="Times,serif" font-size="14.00" fill="#000000">0</text>
</g>
<!-- 7&#45;&#45;4 -->
<g id="edge12" class="edge">
<title>7&#45;&#45;4</title>
<path fill="none" stroke="#000000" d="M211.5007,-258.5966C204.2139,-243.676 193.7698,-222.2906 186.4867,-207.3775"/>
<text text-anchor="middle" x="204.5" y="-228.8" font-family="Times,serif" font-size="14.00" fill="#000000">1</text>
</g>
<!-- 8 -->
<g id="node9" class="node">
<title>8</title>
<ellipse fill="none" stroke="#000000" cx="184" cy="-362" rx="27" ry="18"/>
<text text-anchor="middle" x="184" y="-357.8" font-family="Times,serif" font-size="14.00" fill="#000000">a</text>
</g>
<!-- 8&#45;&#45;6 -->
<g id="edge14" class="edge">
<title>8&#45;&#45;6</title>
<path fill="none" stroke="#000000" d="M176.7149,-344.5966C170.469,-329.676 161.517,-308.2906 155.2743,-293.3775"/>
<text text-anchor="middle" x="171.5" y="-314.8" font-family="Times,serif" font-size="14.00" fill="#000000">1</text>
</g>
<!-- 8&#45;&#45;7 -->
<g id="edge13" class="edge">
<title>8&#45;&#45;7</title>
<path fill="none" stroke="#000000" d="M191.2851,-344.5966C197.531,-329.676 206.483,-308.2906 212.7257,-293.3775"/>
<text text-anchor="middle" x="207.5" y="-314.8" font-family="Times,serif" font-size="14.00" fill="#000000">0</text>
</g>
</g>
</svg>
